<mxfile host="65bd71144e">
    <diagram id="sm7wcVNQxz1DdLG2kirs" name="Ziffer 1">
        <mxGraphModel dx="798" dy="610" grid="1" gridSize="10" guides="1" tooltips="1" connect="1" arrows="1" fold="1" page="1" pageScale="1" pageWidth="827" pageHeight="1169" math="0" shadow="0">
            <root>
                <mxCell id="0"/>
                <mxCell id="1" parent="0"/>
                <mxCell id="3ktU2ysn4vKLlp46MjgB-18" style="edgeStyle=none;html=1;" edge="1" parent="1" source="2" target="7">
                    <mxGeometry relative="1" as="geometry"/>
                </mxCell>
                <mxCell id="2" value="Start" style="rounded=1;whiteSpace=wrap;html=1;fillColor=#60a917;fontColor=#ffffff;strokeColor=#2D7600;" vertex="1" parent="1">
                    <mxGeometry x="316" y="30" width="124" height="60" as="geometry"/>
                </mxCell>
                <mxCell id="3" value="Stop" style="rounded=1;whiteSpace=wrap;html=1;fillColor=#a20025;fontColor=#ffffff;strokeColor=#6F0000;" vertex="1" parent="1">
                    <mxGeometry x="300" y="520" width="120" height="60" as="geometry"/>
                </mxCell>
                <mxCell id="3ktU2ysn4vKLlp46MjgB-19" style="edgeStyle=none;html=1;entryX=0.5;entryY=0;entryDx=0;entryDy=0;" edge="1" parent="1" source="7" target="15">
                    <mxGeometry relative="1" as="geometry"/>
                </mxCell>
                <mxCell id="7" value="Ziffer 1 eingeben" style="shape=parallelogram;perimeter=parallelogramPerimeter;whiteSpace=wrap;html=1;fixedSize=1;fillColor=#1ba1e2;fontColor=#ffffff;strokeColor=#006EAF;" vertex="1" parent="1">
                    <mxGeometry x="300" y="120" width="140" height="70" as="geometry"/>
                </mxCell>
                <mxCell id="8" value="Addition&amp;nbsp;" style="rounded=0;whiteSpace=wrap;html=1;fillColor=#6a00ff;fontColor=#ffffff;strokeColor=#3700CC;" vertex="1" parent="1">
                    <mxGeometry x="300" y="330" width="120" height="60" as="geometry"/>
                </mxCell>
                <mxCell id="12" style="edgeStyle=none;html=1;entryX=0.375;entryY=-0.017;entryDx=0;entryDy=0;entryPerimeter=0;" edge="1" parent="1" source="9" target="3">
                    <mxGeometry relative="1" as="geometry"/>
                </mxCell>
                <mxCell id="9" value="Summe ausgeben" style="shape=parallelogram;perimeter=parallelogramPerimeter;whiteSpace=wrap;html=1;fixedSize=1;fillColor=#76608a;fontColor=#ffffff;strokeColor=#432D57;" vertex="1" parent="1">
                    <mxGeometry x="280" y="390" width="140" height="90" as="geometry"/>
                </mxCell>
                <mxCell id="18" style="edgeStyle=none;html=1;entryX=0.5;entryY=0;entryDx=0;entryDy=0;" edge="1" parent="1" source="15" target="8">
                    <mxGeometry relative="1" as="geometry"/>
                </mxCell>
                <mxCell id="15" value="Ziffern in Zahlen&lt;br&gt;&amp;nbsp;konvertieren" style="rounded=0;whiteSpace=wrap;html=1;fillColor=#0050ef;fontColor=#ffffff;strokeColor=#001DBC;" vertex="1" parent="1">
                    <mxGeometry x="280" y="230" width="160" height="60" as="geometry"/>
                </mxCell>
            </root>
        </mxGraphModel>
    </diagram>
    <diagram id="4QBxqySK1FxogIUKlpTP" name="Ziffer 2">
        <mxGraphModel dx="798" dy="610" grid="1" gridSize="10" guides="1" tooltips="1" connect="1" arrows="1" fold="1" page="1" pageScale="1" pageWidth="827" pageHeight="1169" math="0" shadow="0">
            <root>
                <mxCell id="oSPvRewYBG8LkSnFnXdr-0"/>
                <mxCell id="oSPvRewYBG8LkSnFnXdr-1" parent="oSPvRewYBG8LkSnFnXdr-0"/>
                <mxCell id="gAsZCZGZmErVFLr-FCen-0" style="edgeStyle=none;html=1;" edge="1" source="gAsZCZGZmErVFLr-FCen-1" target="gAsZCZGZmErVFLr-FCen-4" parent="oSPvRewYBG8LkSnFnXdr-1">
                    <mxGeometry relative="1" as="geometry"/>
                </mxCell>
                <mxCell id="gAsZCZGZmErVFLr-FCen-1" value="Start" style="rounded=1;whiteSpace=wrap;html=1;fillColor=#60a917;fontColor=#ffffff;strokeColor=#2D7600;" vertex="1" parent="oSPvRewYBG8LkSnFnXdr-1">
                    <mxGeometry x="326" y="40" width="124" height="60" as="geometry"/>
                </mxCell>
                <mxCell id="gAsZCZGZmErVFLr-FCen-2" value="Stop" style="rounded=1;whiteSpace=wrap;html=1;fillColor=#a20025;fontColor=#ffffff;strokeColor=#6F0000;" vertex="1" parent="oSPvRewYBG8LkSnFnXdr-1">
                    <mxGeometry x="310" y="530" width="120" height="60" as="geometry"/>
                </mxCell>
                <mxCell id="gAsZCZGZmErVFLr-FCen-3" style="edgeStyle=none;html=1;entryX=0.5;entryY=0;entryDx=0;entryDy=0;" edge="1" source="gAsZCZGZmErVFLr-FCen-4" target="gAsZCZGZmErVFLr-FCen-9" parent="oSPvRewYBG8LkSnFnXdr-1">
                    <mxGeometry relative="1" as="geometry"/>
                </mxCell>
                <mxCell id="gAsZCZGZmErVFLr-FCen-4" value="Ziffer 2 eingeben" style="shape=parallelogram;perimeter=parallelogramPerimeter;whiteSpace=wrap;html=1;fixedSize=1;fillColor=#a20025;fontColor=#ffffff;strokeColor=#6F0000;" vertex="1" parent="oSPvRewYBG8LkSnFnXdr-1">
                    <mxGeometry x="310" y="130" width="140" height="70" as="geometry"/>
                </mxCell>
                <mxCell id="gAsZCZGZmErVFLr-FCen-5" value="Addition&amp;nbsp;" style="rounded=0;whiteSpace=wrap;html=1;fillColor=#6a00ff;fontColor=#ffffff;strokeColor=#3700CC;" vertex="1" parent="oSPvRewYBG8LkSnFnXdr-1">
                    <mxGeometry x="310" y="340" width="120" height="60" as="geometry"/>
                </mxCell>
                <mxCell id="gAsZCZGZmErVFLr-FCen-6" style="edgeStyle=none;html=1;entryX=0.375;entryY=-0.017;entryDx=0;entryDy=0;entryPerimeter=0;" edge="1" source="gAsZCZGZmErVFLr-FCen-7" target="gAsZCZGZmErVFLr-FCen-2" parent="oSPvRewYBG8LkSnFnXdr-1">
                    <mxGeometry relative="1" as="geometry"/>
                </mxCell>
                <mxCell id="gAsZCZGZmErVFLr-FCen-7" value="Summe ausgeben" style="shape=parallelogram;perimeter=parallelogramPerimeter;whiteSpace=wrap;html=1;fixedSize=1;fillColor=#76608a;fontColor=#ffffff;strokeColor=#432D57;" vertex="1" parent="oSPvRewYBG8LkSnFnXdr-1">
                    <mxGeometry x="290" y="400" width="140" height="90" as="geometry"/>
                </mxCell>
                <mxCell id="gAsZCZGZmErVFLr-FCen-8" style="edgeStyle=none;html=1;entryX=0.5;entryY=0;entryDx=0;entryDy=0;" edge="1" source="gAsZCZGZmErVFLr-FCen-9" target="gAsZCZGZmErVFLr-FCen-5" parent="oSPvRewYBG8LkSnFnXdr-1">
                    <mxGeometry relative="1" as="geometry"/>
                </mxCell>
                <mxCell id="gAsZCZGZmErVFLr-FCen-9" value="Ziffern in Zahlen&lt;br&gt;&amp;nbsp;konvertieren" style="rounded=0;whiteSpace=wrap;html=1;fillColor=#0050ef;fontColor=#ffffff;strokeColor=#001DBC;" vertex="1" parent="oSPvRewYBG8LkSnFnXdr-1">
                    <mxGeometry x="290" y="240" width="160" height="60" as="geometry"/>
                </mxCell>
            </root>
        </mxGraphModel>
    </diagram>
</mxfile>